<?xml version="1.0" standalone="no"?>
<!DOCTYPE svg PUBLIC "-//W3C//DTD SVG 20010904//EN"
 "http://www.w3.org/TR/2001/REC-SVG-20010904/DTD/svg10.dtd">
<svg version="1.0" xmlns="http://www.w3.org/2000/svg"
 width="512.000000pt" height="512.000000pt" viewBox="0 0 512.000000 512.000000"
 preserveAspectRatio="xMidYMid meet">

<g transform="translate(0.000000,512.000000) scale(0.100000,-0.100000)"
fill="#000000" stroke="none">
<path d="M2370 5113 c-367 -36 -649 -115 -949 -264 -667 -331 -1152 -931
-1340 -1657 -93 -358 -104 -771 -31 -1133 135 -669 527 -1251 1100 -1634 128
-86 383 -215 534 -270 138 -51 376 -110 531 -131 159 -23 520 -25 665 -5 665
91 1240 412 1665 926 242 293 445 718 519 1087 43 210 51 294 51 523 0 259
-17 403 -75 631 -50 195 -93 313 -189 509 -241 491 -636 893 -1123 1141 -295
150 -580 235 -907 269 -122 13 -359 17 -451 8z m474 -1063 c452 -87 841 -375
1054 -779 l49 -92 43 83 c23 46 54 98 67 116 56 75 178 99 263 51 67 -37 103
-95 108 -174 l4 -64 -192 -372 c-106 -204 -206 -386 -222 -405 -39 -44 -103
-68 -171 -62 -46 4 -106 32 -423 197 -203 106 -380 202 -393 214 -59 54 -79
173 -42 245 39 76 113 122 196 122 38 0 74 -15 211 -86 91 -47 168 -83 171
-81 3 3 -9 35 -27 71 -253 531 -905 763 -1437 511 -123 -58 -193 -105 -287
-195 -164 -156 -263 -327 -318 -547 -18 -73 -22 -115 -22 -248 1 -139 4 -173
27 -257 115 -432 452 -744 880 -813 341 -55 668 47 940 293 64 58 110 76 178
70 110 -11 192 -101 191 -212 -1 -74 -27 -121 -114 -201 -299 -274 -733 -422
-1137 -386 -280 25 -542 120 -765 279 -104 73 -275 245 -349 348 -542 764
-278 1822 558 2242 150 75 343 132 515 152 110 13 322 3 444 -20z"/>
</g>
</svg>
